<?xml version="1.0" encoding="UTF-8"?>
<!DOCTYPE svg
PUBLIC "-//W3C//DTD SVG 1.1//EN"
       "http://www.w3.org/Graphics/SVG/1.1/DTD/svg11.dtd">
<svg viewBox="43 19 1332 563" width="1289px" height="544px" xmlns="http://www.w3.org/2000/svg" version="1.1">
   <line x1="407" y1="87" x2="417" y2="87" style="stroke:#0bf;stroke-width:1;"/>
   <line x1="822" y1="64" x2="832" y2="64" style="stroke:#0bf;stroke-width:1;"/>
   <line x1="417" y1="87" x2="822" y2="64" style="stroke:#0bf;stroke-width:1;"/>
   <line x1="414.5" y1="87" x2="410.96446609407" y2="90.535533905933" style="stroke:#0bf;stroke-width:2;"/>
   <line x1="414.5" y1="87" x2="410.96446609407" y2="83.464466094067" style="stroke:#0bf;stroke-width:2;"/>
   <line x1="827" y1="64" x2="823.46446609407" y2="67.535533905933" style="stroke:#0bf;stroke-width:2;"/>
   <line x1="827" y1="64" x2="823.46446609407" y2="60.464466094067" style="stroke:#0bf;stroke-width:2;"/>
   <line x1="174" y1="102" x2="184" y2="102" style="stroke:#b0b;stroke-width:1;"/>
   <line x1="309" y1="67" x2="319" y2="67" style="stroke:#b0b;stroke-width:1;"/>
   <line x1="184" y1="102" x2="309" y2="67" style="stroke:#b0b;stroke-width:1;"/>
   <line x1="181.5" y1="102" x2="177.96446609407" y2="105.53553390593" style="stroke:#b0b;stroke-width:2;"/>
   <line x1="181.5" y1="102" x2="177.96446609407" y2="98.464466094067" style="stroke:#b0b;stroke-width:2;"/>
   <line x1="314" y1="67" x2="310.46446609407" y2="70.535533905933" style="stroke:#b0b;stroke-width:2;"/>
   <line x1="314" y1="67" x2="310.46446609407" y2="63.464466094067" style="stroke:#b0b;stroke-width:2;"/>
   <line x1="174" y1="122" x2="184" y2="122" style="stroke:#333;stroke-width:1;"/>
   <line x1="204" y1="338" x2="194" y2="338" style="stroke:#333;stroke-width:1;"/>
   <line x1="184" y1="122" x2="204" y2="338" style="stroke:#333;stroke-width:1;"/>
   <line x1="181.5" y1="122" x2="177.96446609407" y2="125.53553390593" style="stroke:#333;stroke-width:2;"/>
   <line x1="181.5" y1="122" x2="177.96446609407" y2="118.46446609407" style="stroke:#333;stroke-width:2;"/>
   <line x1="199" y1="338" x2="202.53553390593" y2="341.53553390593" style="stroke:#333;stroke-width:2;"/>
   <line x1="199" y1="338" x2="202.53553390593" y2="334.46446609407" style="stroke:#333;stroke-width:2;"/>
   <line x1="941" y1="84" x2="951" y2="84" style="stroke:#333;stroke-width:1;"/>
   <line x1="1157" y1="85" x2="1167" y2="85" style="stroke:#333;stroke-width:1;"/>
   <line x1="951" y1="84" x2="1157" y2="85" style="stroke:#333;stroke-width:1;"/>
   <line x1="948.5" y1="84" x2="944.96446609407" y2="87.535533905933" style="stroke:#333;stroke-width:2;"/>
   <line x1="948.5" y1="84" x2="944.96446609407" y2="80.464466094067" style="stroke:#333;stroke-width:2;"/>
   <line x1="1162" y1="85" x2="1158.4644660941" y2="88.535533905933" style="stroke:#333;stroke-width:2;"/>
   <line x1="1162" y1="85" x2="1158.4644660941" y2="81.464466094067" style="stroke:#333;stroke-width:2;"/>
   <line x1="564" y1="91" x2="554" y2="91" style="stroke:#cb0;stroke-width:1;"/>
   <line x1="417" y1="67" x2="407" y2="67" style="stroke:#cb0;stroke-width:1;"/>
   <line x1="554" y1="91" x2="417" y2="67" style="stroke:#cb0;stroke-width:1;"/>
   <line x1="556.5" y1="91" x2="560.03553390593" y2="94.535533905933" style="stroke:#cb0;stroke-width:2;"/>
   <line x1="556.5" y1="91" x2="560.03553390593" y2="87.464466094067" style="stroke:#cb0;stroke-width:2;"/>
   <line x1="412" y1="67" x2="415.53553390593" y2="70.535533905933" style="stroke:#cb0;stroke-width:2;"/>
   <line x1="412" y1="67" x2="415.53553390593" y2="63.464466094067" style="stroke:#cb0;stroke-width:2;"/>
   <line x1="617" y1="393" x2="627" y2="393" style="stroke:#0bf;stroke-width:1;"/>
   <line x1="649" y1="71" x2="639" y2="71" style="stroke:#0bf;stroke-width:1;"/>
   <line x1="627" y1="393" x2="649" y2="71" style="stroke:#0bf;stroke-width:1;"/>
   <line x1="624.5" y1="393" x2="620.96446609407" y2="396.53553390593" style="stroke:#0bf;stroke-width:2;"/>
   <line x1="624.5" y1="393" x2="620.96446609407" y2="389.46446609407" style="stroke:#0bf;stroke-width:2;"/>
   <line x1="644" y1="71" x2="647.53553390593" y2="74.535533905933" style="stroke:#0bf;stroke-width:2;"/>
   <line x1="644" y1="71" x2="647.53553390593" y2="67.464466094067" style="stroke:#0bf;stroke-width:2;"/>
   <line x1="617" y1="413" x2="627" y2="413" style="stroke:#cb0;stroke-width:1;"/>
   <line x1="838" y1="378" x2="848" y2="378" style="stroke:#cb0;stroke-width:1;"/>
   <line x1="627" y1="413" x2="838" y2="378" style="stroke:#cb0;stroke-width:1;"/>
   <line x1="624.5" y1="413" x2="620.96446609407" y2="416.53553390593" style="stroke:#cb0;stroke-width:2;"/>
   <line x1="624.5" y1="413" x2="620.96446609407" y2="409.46446609407" style="stroke:#cb0;stroke-width:2;"/>
   <line x1="843" y1="378" x2="839.46446609407" y2="381.53553390593" style="stroke:#cb0;stroke-width:2;"/>
   <line x1="843" y1="378" x2="839.46446609407" y2="374.46446609407" style="stroke:#cb0;stroke-width:2;"/>
   <line x1="848" y1="398" x2="838" y2="398" style="stroke:#0b0;stroke-width:1;"/>
   <line x1="822" y1="64" x2="832" y2="64" style="stroke:#0b0;stroke-width:1;"/>
   <line x1="838" y1="398" x2="822" y2="64" style="stroke:#0b0;stroke-width:1;"/>
   <line x1="840.5" y1="398" x2="844.03553390593" y2="401.53553390593" style="stroke:#0b0;stroke-width:2;"/>
   <line x1="840.5" y1="398" x2="844.03553390593" y2="394.46446609407" style="stroke:#0b0;stroke-width:2;"/>
   <line x1="827" y1="64" x2="823.46446609407" y2="67.535533905933" style="stroke:#0b0;stroke-width:2;"/>
   <line x1="827" y1="64" x2="823.46446609407" y2="60.464466094067" style="stroke:#0b0;stroke-width:2;"/>
   <rect width="88" height="20" x="319" y="37" style="fill:#007;stroke:black;"/>
   <text width="88" height="20" x="324" y="51" style="fill:#fff;" font-family="Arial" font-size="16px"> courses</text>
   <rect width="88" height="20" x="319" y="57" style="fill:#aea;stroke:black;"/>
   <text width="88" height="20" x="324" y="71" style="fill:black;" font-family="Arial" font-size="16px">id</text>
   <rect width="88" height="20" x="319" y="77" style="fill:none;stroke:black;"/>
   <text width="88" height="20" x="324" y="91" style="fill:black;" font-family="Arial" font-size="16px">degree_id</text>
   <rect width="88" height="20" x="319" y="97" style="fill:none;stroke:black;"/>
   <text width="88" height="20" x="324" y="111" style="fill:black;" font-family="Arial" font-size="16px">name</text>
   <rect width="88" height="20" x="319" y="117" style="fill:none;stroke:black;"/>
   <text width="88" height="20" x="324" y="131" style="fill:black;" font-family="Arial" font-size="16px">description</text>
   <rect width="88" height="20" x="319" y="137" style="fill:none;stroke:black;"/>
   <text width="88" height="20" x="324" y="151" style="fill:black;" font-family="Arial" font-size="16px">period</text>
   <rect width="88" height="20" x="319" y="157" style="fill:none;stroke:black;"/>
   <text width="88" height="20" x="324" y="171" style="fill:black;" font-family="Arial" font-size="16px">year</text>
   <rect width="88" height="20" x="319" y="177" style="fill:none;stroke:black;"/>
   <text width="88" height="20" x="324" y="191" style="fill:black;" font-family="Arial" font-size="16px">cfu</text>
   <rect width="88" height="20" x="319" y="197" style="fill:none;stroke:black;"/>
   <text width="88" height="20" x="324" y="211" style="fill:black;" font-family="Arial" font-size="16px">website</text>
   <rect width="116" height="20" x="58" y="72" style="fill:#007;stroke:black;"/>
   <text width="116" height="20" x="63" y="86" style="fill:#fff;" font-family="Arial" font-size="16px"> course_teacher</text>
   <rect width="116" height="20" x="58" y="92" style="fill:#aea;stroke:black;"/>
   <text width="116" height="20" x="63" y="106" style="fill:black;" font-family="Arial" font-size="16px">course_id</text>
   <rect width="116" height="20" x="58" y="112" style="fill:#aea;stroke:black;"/>
   <text width="116" height="20" x="63" y="126" style="fill:black;" font-family="Arial" font-size="16px">teacher_id</text>
   <rect width="109" height="20" x="832" y="34" style="fill:#007;stroke:black;"/>
   <text width="109" height="20" x="837" y="48" style="fill:#fff;" font-family="Arial" font-size="16px"> degrees</text>
   <rect width="109" height="20" x="832" y="54" style="fill:#aea;stroke:black;"/>
   <text width="109" height="20" x="837" y="68" style="fill:black;" font-family="Arial" font-size="16px">id</text>
   <rect width="109" height="20" x="832" y="74" style="fill:none;stroke:black;"/>
   <text width="109" height="20" x="837" y="88" style="fill:black;" font-family="Arial" font-size="16px">department_id</text>
   <rect width="109" height="20" x="832" y="94" style="fill:none;stroke:black;"/>
   <text width="109" height="20" x="837" y="108" style="fill:black;" font-family="Arial" font-size="16px">name</text>
   <rect width="109" height="20" x="832" y="114" style="fill:none;stroke:black;"/>
   <text width="109" height="20" x="837" y="128" style="fill:black;" font-family="Arial" font-size="16px">level</text>
   <rect width="109" height="20" x="832" y="134" style="fill:none;stroke:black;"/>
   <text width="109" height="20" x="837" y="148" style="fill:black;" font-family="Arial" font-size="16px">address</text>
   <rect width="109" height="20" x="832" y="154" style="fill:none;stroke:black;"/>
   <text width="109" height="20" x="837" y="168" style="fill:black;" font-family="Arial" font-size="16px">email</text>
   <rect width="109" height="20" x="832" y="174" style="fill:none;stroke:black;"/>
   <text width="109" height="20" x="837" y="188" style="fill:black;" font-family="Arial" font-size="16px">website</text>
   <rect width="150" height="20" x="1167" y="55" style="fill:#007;stroke:black;"/>
   <text width="150" height="20" x="1172" y="69" style="fill:#fff;" font-family="Arial" font-size="16px"> departments</text>
   <rect width="150" height="20" x="1167" y="75" style="fill:#aea;stroke:black;"/>
   <text width="150" height="20" x="1172" y="89" style="fill:black;" font-family="Arial" font-size="16px">id</text>
   <rect width="150" height="20" x="1167" y="95" style="fill:none;stroke:black;"/>
   <text width="150" height="20" x="1172" y="109" style="fill:black;" font-family="Arial" font-size="16px">name</text>
   <rect width="150" height="20" x="1167" y="115" style="fill:none;stroke:black;"/>
   <text width="150" height="20" x="1172" y="129" style="fill:black;" font-family="Arial" font-size="16px">address</text>
   <rect width="150" height="20" x="1167" y="135" style="fill:none;stroke:black;"/>
   <text width="150" height="20" x="1172" y="149" style="fill:black;" font-family="Arial" font-size="16px">phone</text>
   <rect width="150" height="20" x="1167" y="155" style="fill:none;stroke:black;"/>
   <text width="150" height="20" x="1172" y="169" style="fill:black;" font-family="Arial" font-size="16px">email</text>
   <rect width="150" height="20" x="1167" y="175" style="fill:none;stroke:black;"/>
   <text width="150" height="20" x="1172" y="189" style="fill:black;" font-family="Arial" font-size="16px">website</text>
   <rect width="150" height="20" x="1167" y="195" style="fill:none;stroke:black;"/>
   <text width="150" height="20" x="1172" y="209" style="fill:black;" font-family="Arial" font-size="16px">head_of_department</text>
   <rect width="75" height="20" x="564" y="41" style="fill:#007;stroke:black;"/>
   <text width="75" height="20" x="569" y="55" style="fill:#fff;" font-family="Arial" font-size="16px"> exams</text>
   <rect width="75" height="20" x="564" y="61" style="fill:#aea;stroke:black;"/>
   <text width="75" height="20" x="569" y="75" style="fill:black;" font-family="Arial" font-size="16px">id</text>
   <rect width="75" height="20" x="564" y="81" style="fill:none;stroke:black;"/>
   <text width="75" height="20" x="569" y="95" style="fill:black;" font-family="Arial" font-size="16px">course_id</text>
   <rect width="75" height="20" x="564" y="101" style="fill:none;stroke:black;"/>
   <text width="75" height="20" x="569" y="115" style="fill:black;" font-family="Arial" font-size="16px">date</text>
   <rect width="75" height="20" x="564" y="121" style="fill:none;stroke:black;"/>
   <text width="75" height="20" x="569" y="135" style="fill:black;" font-family="Arial" font-size="16px">hour</text>
   <rect width="75" height="20" x="564" y="141" style="fill:none;stroke:black;"/>
   <text width="75" height="20" x="569" y="155" style="fill:black;" font-family="Arial" font-size="16px">location</text>
   <rect width="75" height="20" x="564" y="161" style="fill:none;stroke:black;"/>
   <text width="75" height="20" x="569" y="175" style="fill:black;" font-family="Arial" font-size="16px">address</text>
   <rect width="108" height="20" x="509" y="363" style="fill:#007;stroke:black;"/>
   <text width="108" height="20" x="514" y="377" style="fill:#fff;" font-family="Arial" font-size="16px"> exam_student</text>
   <rect width="108" height="20" x="509" y="383" style="fill:#aea;stroke:black;"/>
   <text width="108" height="20" x="514" y="397" style="fill:black;" font-family="Arial" font-size="16px">exam_id</text>
   <rect width="108" height="20" x="509" y="403" style="fill:#aea;stroke:black;"/>
   <text width="108" height="20" x="514" y="417" style="fill:black;" font-family="Arial" font-size="16px">student_id</text>
   <rect width="108" height="20" x="509" y="423" style="fill:none;stroke:black;"/>
   <text width="108" height="20" x="514" y="437" style="fill:black;" font-family="Arial" font-size="16px">vote</text>
   <rect width="149" height="20" x="848" y="348" style="fill:#007;stroke:black;"/>
   <text width="149" height="20" x="853" y="362" style="fill:#fff;" font-family="Arial" font-size="16px"> students</text>
   <rect width="149" height="20" x="848" y="368" style="fill:#aea;stroke:black;"/>
   <text width="149" height="20" x="853" y="382" style="fill:black;" font-family="Arial" font-size="16px">id</text>
   <rect width="149" height="20" x="848" y="388" style="fill:none;stroke:black;"/>
   <text width="149" height="20" x="853" y="402" style="fill:black;" font-family="Arial" font-size="16px">degree_id</text>
   <rect width="149" height="20" x="848" y="408" style="fill:none;stroke:black;"/>
   <text width="149" height="20" x="853" y="422" style="fill:black;" font-family="Arial" font-size="16px">name</text>
   <rect width="149" height="20" x="848" y="428" style="fill:none;stroke:black;"/>
   <text width="149" height="20" x="853" y="442" style="fill:black;" font-family="Arial" font-size="16px">surname</text>
   <rect width="149" height="20" x="848" y="448" style="fill:none;stroke:black;"/>
   <text width="149" height="20" x="853" y="462" style="fill:black;" font-family="Arial" font-size="16px">date_of_birth</text>
   <rect width="149" height="20" x="848" y="468" style="fill:none;stroke:black;"/>
   <text width="149" height="20" x="853" y="482" style="fill:black;" font-family="Arial" font-size="16px">fiscal_code</text>
   <rect width="149" height="20" x="848" y="488" style="fill:none;stroke:black;"/>
   <text width="149" height="20" x="853" y="502" style="fill:black;" font-family="Arial" font-size="16px">enrolment_date</text>
   <rect width="149" height="20" x="848" y="508" style="fill:none;stroke:black;"/>
   <text width="149" height="20" x="853" y="522" style="fill:black;" font-family="Arial" font-size="16px">registration_number</text>
   <rect width="149" height="20" x="848" y="528" style="fill:none;stroke:black;"/>
   <text width="149" height="20" x="853" y="542" style="fill:black;" font-family="Arial" font-size="16px">email</text>
   <rect width="110" height="20" x="84" y="308" style="fill:#007;stroke:black;"/>
   <text width="110" height="20" x="89" y="322" style="fill:#fff;" font-family="Arial" font-size="16px"> teachers</text>
   <rect width="110" height="20" x="84" y="328" style="fill:#aea;stroke:black;"/>
   <text width="110" height="20" x="89" y="342" style="fill:black;" font-family="Arial" font-size="16px">id</text>
   <rect width="110" height="20" x="84" y="348" style="fill:none;stroke:black;"/>
   <text width="110" height="20" x="89" y="362" style="fill:black;" font-family="Arial" font-size="16px">name</text>
   <rect width="110" height="20" x="84" y="368" style="fill:none;stroke:black;"/>
   <text width="110" height="20" x="89" y="382" style="fill:black;" font-family="Arial" font-size="16px">surname</text>
   <rect width="110" height="20" x="84" y="388" style="fill:none;stroke:black;"/>
   <text width="110" height="20" x="89" y="402" style="fill:black;" font-family="Arial" font-size="16px">phone</text>
   <rect width="110" height="20" x="84" y="408" style="fill:none;stroke:black;"/>
   <text width="110" height="20" x="89" y="422" style="fill:black;" font-family="Arial" font-size="16px">email</text>
   <rect width="110" height="20" x="84" y="428" style="fill:none;stroke:black;"/>
   <text width="110" height="20" x="89" y="442" style="fill:black;" font-family="Arial" font-size="16px">office_address</text>
   <rect width="110" height="20" x="84" y="448" style="fill:none;stroke:black;"/>
   <text width="110" height="20" x="89" y="462" style="fill:black;" font-family="Arial" font-size="16px">office_number</text>
</svg>
